<svg version="1.1" xmlns="http://www.w3.org/2000/svg" xmlns:xlink="http://www.w3.org/1999/xlink" width="500" height="500"><g data-paper-data="{&quot;description&quot;:&quot;Logo for MyTutor\n================\n\nThis logo was generated by MarkMaker at http://emblemmatic.org/markmaker/ and may be composed of elements designed by others.\n\nThe font is Maven Pro Medium designed by Joe Prince and released under the OFL license via Google Fonts: https://www.google.com/fonts/specimen/Maven%20Pro. The font includes this copyright statement: Copyright (c) 2011 by Vissol Ltd (joe@admixdesigns.com). All rights reserved.\n\nMarkMaker uses semantic data from the Princeton University WordNet database http://wordnet.princeton.edu and font descriptions from Google Fonts https://www.google.com/fonts.&quot;}" fill="#223a0e" fill-rule="nonzero" stroke="#000000" stroke-width="1.75" stroke-linecap="butt" stroke-linejoin="miter" stroke-miterlimit="10" stroke-dasharray="3.5,1.3125" stroke-dashoffset="0" font-family="none" font-weight="none" font-size="none" text-anchor="none" style="mix-blend-mode: normal"><g data-paper-data="{&quot;elementType&quot;:&quot;logo&quot;}"><g data-paper-data="{&quot;elementType&quot;:&quot;text&quot;}"><g data-paper-data="{&quot;baseline&quot;:66.69921875,&quot;elementType&quot;:&quot;row&quot;}"><g data-paper-data="{&quot;baselineProportion&quot;:0.7721876766534765,&quot;fontSize&quot;:100,&quot;baseline&quot;:66.69921875,&quot;elementType&quot;:&quot;word&quot;}"><path d="M50,276.31148v-74.64481h11.20219l24.48087,32.24044l24.64481,-32.24044h11.20219v74.64481h-10.32787v-58.85246l-25.51913,33.44262l-25.35519,-33.44262v58.85246z" data-paper-data="{&quot;elementType&quot;:&quot;letter&quot;,&quot;baseline&quot;:66.69921875,&quot;baselineProportion&quot;:1,&quot;fontSize&quot;:100}"></path><path d="M134.69945,220.46448h10.98361l15.02732,41.85792l14.7541,-41.85792h10.98361l-22.95082,61.80328c-3.97086,10.71038 -9.74499,16.06557 -17.3224,16.06557c0,0 -0.01821,0 -0.05464,0c-2.47723,0 -5.08197,-0.29144 -7.81421,-0.87432v-9.18033c2.22222,0.58288 4.31694,0.89253 6.28415,0.92896c4.62659,0 8.36066,-4.29872 11.20219,-12.89617z" data-paper-data="{&quot;elementType&quot;:&quot;letter&quot;,&quot;baseline&quot;:49.90234375,&quot;baselineProportion&quot;:0.7171929824561404,&quot;fontSize&quot;:100}"></path><path d="M191.25683,211.39344v-9.72678h60.76503v9.72678h-25.30055v64.91803h-10.32787v-64.91803z" data-paper-data="{&quot;elementType&quot;:&quot;letter&quot;,&quot;baseline&quot;:66.69921875,&quot;baselineProportion&quot;:1,&quot;fontSize&quot;:100}"></path><path d="M254.91803,252.81421v-32.34973h10.16393v33.11475c0,5.06375 1.08379,8.7796 3.25137,11.14754c2.16758,2.36794 5.56466,3.55191 10.19126,3.55191c4.62659,0 8.00546,-1.17486 10.13661,-3.52459c2.13115,-2.34973 3.19672,-6.07468 3.19672,-11.17486v-33.11475h10.27322v32.34973c0,7.75956 -2.0674,13.7796 -6.20219,18.06011c-4.13479,4.28051 -9.93625,6.42077 -17.40437,6.42077c-7.46812,0 -13.26958,-2.14026 -17.40437,-6.42077c-4.13479,-4.28051 -6.20219,-10.30055 -6.20219,-18.06011z" data-paper-data="{&quot;elementType&quot;:&quot;letter&quot;,&quot;baseline&quot;:49.90234375,&quot;baselineProportion&quot;:0.9826923076923076,&quot;fontSize&quot;:100}"></path><path d="M313.06011,229.09836v-8.63388h9.72678v-16.66667h10.21858v16.66667h14.86339v8.63388h-14.86339v32.45902c0,4.37158 2.75046,6.55738 8.25137,6.55738c0.03643,0 0.07286,0 0.10929,0c2.55009,0 4.71767,-0.54645 6.50273,-1.63934v9.18033c-2.55009,1.02004 -5.10018,1.53005 -7.65027,1.53005c-0.07286,0 -0.16393,0 -0.27322,0c-1.34791,0 -2.78689,-0.16393 -4.31694,-0.4918c-1.53005,-0.32787 -3.36066,-0.9745 -5.4918,-1.93989c-2.13115,-0.96539 -3.88889,-2.64117 -5.27322,-5.02732c-1.38434,-2.38616 -2.0765,-5.34608 -2.0765,-8.87978v-31.74863z" data-paper-data="{&quot;elementType&quot;:&quot;letter&quot;,&quot;baseline&quot;:64.794921875,&quot;baselineProportion&quot;:0.9880863737900223,&quot;fontSize&quot;:100}"></path><path d="M360,262.89617c0,0 -0.39162,-0.98816 -1.17486,-2.96448c-0.78324,-1.97632 -1.17486,-5.80601 -1.17486,-11.48907c0,-5.68306 0.78324,-10.50091 2.34973,-14.45355c1.56648,-3.95264 3.69763,-6.91257 6.39344,-8.87978c2.69581,-1.96721 5.45537,-3.36066 8.27869,-4.18033c2.82332,-0.81967 5.91985,-1.22951 9.28962,-1.22951c3.36976,0 6.4663,0.40984 9.28962,1.22951c2.82332,0.81967 5.58288,2.21311 8.27869,4.18033c2.69581,1.96721 4.82696,4.92714 6.39344,8.87978c1.56648,3.95264 2.34973,8.77049 2.34973,14.45355c0,5.68306 -0.78324,10.50091 -2.34973,14.45355c-1.56648,3.95264 -3.69763,6.91257 -6.39344,8.87978c-2.69581,1.96721 -5.45537,3.36066 -8.27869,4.18033c-2.82332,0.81967 -5.91985,1.22951 -9.28962,1.22951c-3.36976,0 -6.4663,-0.40984 -9.28962,-1.22951c-2.82332,-0.81967 -5.58288,-2.21311 -8.27869,-4.18033c-2.69581,-1.96721 -4.82696,-4.92714 -6.39344,-8.87978M369.20765,238.08743c0,0 -0.20492,0.67851 -0.61475,2.03552c-0.40984,1.35701 -0.61475,4.13024 -0.61475,8.31967c0,4.18944 0.40984,7.64117 1.22951,10.35519c0.81967,2.71403 2.04918,4.72678 3.68852,6.03825c1.63934,1.31148 3.2969,2.18579 4.97268,2.62295c1.67577,0.43716 3.70674,0.65574 6.0929,0.65574c2.38616,0 4.41712,-0.21858 6.0929,-0.65574c1.67577,-0.43716 3.33333,-1.31148 4.97268,-2.62295c1.63934,-1.31148 2.86885,-3.32423 3.68852,-6.03825c0.81967,-2.71403 1.22951,-6.16576 1.22951,-10.35519c0,-4.18944 -0.40984,-7.64117 -1.22951,-10.35519c-0.81967,-2.71403 -2.04918,-4.72678 -3.68852,-6.03825c-1.63934,-1.31148 -3.2969,-2.18579 -4.97268,-2.62295c-1.67577,-0.43716 -3.70674,-0.65574 -6.0929,-0.65574c-2.38616,0 -4.41712,0.21858 -6.0929,0.65574c-1.67577,0.43716 -3.33333,1.31148 -4.97268,2.62295c-1.63934,1.31148 -2.86885,3.32423 -3.68852,6.03825z" data-paper-data="{&quot;elementType&quot;:&quot;letter&quot;,&quot;baseline&quot;:50.5859375,&quot;baselineProportion&quot;:0.9847908745247148,&quot;fontSize&quot;:100}"></path><path d="M422.78689,276.31148v-51.14754c9.32605,-3.71585 18.39709,-5.57377 27.21311,-5.57377v9.39891c-5.53734,0.07286 -11.18397,0.8561 -16.93989,2.34973v44.97268z" data-paper-data="{&quot;elementType&quot;:&quot;letter&quot;,&quot;baseline&quot;:50.68359375,&quot;baselineProportion&quot;:1,&quot;fontSize&quot;:100}"></path></g></g></g></g></g></svg>